<svg xmlns="http://www.w3.org/2000/svg" xmlns:xlink="http://www.w3.org/1999/xlink" width="45" zoomAndPan="magnify" viewBox="0 0 45 44.999999" height="44.999999" preserveAspectRatio="xMidYMid meet" version="1.0"><defs><g><g id="id1"/></g></defs><rect x="-4.5" width="54" fill="rgb(100%, 100%, 100%)" y="-4.5" height="53.999999" fill-opacity="1"/><rect x="-4.5" width="54" fill="rgb(100%, 100%, 100%)" y="-4.5" height="53.999999" fill-opacity="1"/><rect x="-4.5" width="54" fill="rgb(100%, 100%, 100%)" y="-4.5" height="53.999999" fill-opacity="1"/><g fill="rgb(14.509583%, 15.689087%, 18.818665%)" fill-opacity="1"><g transform="translate(13.328199, 20.492487)"><g><path d="M 5.875 0.265625 C 4.820312 0.265625 3.796875 0.132812 2.796875 -0.125 C 1.804688 -0.382812 1.003906 -0.734375 0.390625 -1.171875 L 1.59375 -3.890625 C 2.175781 -3.503906 2.851562 -3.191406 3.625 -2.953125 C 4.394531 -2.722656 5.148438 -2.609375 5.890625 -2.609375 C 7.304688 -2.609375 8.015625 -2.957031 8.015625 -3.65625 C 8.015625 -4.03125 7.8125 -4.304688 7.40625 -4.484375 C 7.007812 -4.671875 6.363281 -4.863281 5.46875 -5.0625 C 4.488281 -5.269531 3.671875 -5.492188 3.015625 -5.734375 C 2.359375 -5.972656 1.789062 -6.359375 1.3125 -6.890625 C 0.84375 -7.429688 0.609375 -8.15625 0.609375 -9.0625 C 0.609375 -9.851562 0.828125 -10.566406 1.265625 -11.203125 C 1.703125 -11.835938 2.347656 -12.34375 3.203125 -12.71875 C 4.066406 -13.09375 5.125 -13.28125 6.375 -13.28125 C 7.226562 -13.28125 8.070312 -13.179688 8.90625 -12.984375 C 9.738281 -12.796875 10.46875 -12.515625 11.09375 -12.140625 L 9.96875 -9.40625 C 8.726562 -10.070312 7.523438 -10.40625 6.359375 -10.40625 C 5.628906 -10.40625 5.097656 -10.296875 4.765625 -10.078125 C 4.429688 -9.867188 4.265625 -9.585938 4.265625 -9.234375 C 4.265625 -8.890625 4.460938 -8.628906 4.859375 -8.453125 C 5.253906 -8.285156 5.890625 -8.109375 6.765625 -7.921875 C 7.753906 -7.710938 8.570312 -7.484375 9.21875 -7.234375 C 9.875 -6.992188 10.441406 -6.609375 10.921875 -6.078125 C 11.398438 -5.554688 11.640625 -4.84375 11.640625 -3.9375 C 11.640625 -3.15625 11.421875 -2.445312 10.984375 -1.8125 C 10.554688 -1.1875 9.90625 -0.679688 9.03125 -0.296875 C 8.164062 0.078125 7.113281 0.265625 5.875 0.265625 Z M 5.875 0.265625 "/></g></g></g><g fill="rgb(14.509583%, 15.689087%, 18.818665%)" fill-opacity="1"><g transform="translate(25.360928, 20.492487)"><g><path d="M 1.296875 -13.015625 L 4.984375 -13.015625 L 4.984375 0 L 1.296875 0 Z M 1.296875 -13.015625 "/></g></g></g><g fill="rgb(14.509583%, 15.689087%, 18.818665%)" fill-opacity="1"><g transform="translate(1.656325, 36.992486)"><g><path d="M 7.25 -13.015625 C 8.425781 -13.015625 9.445312 -12.816406 10.3125 -12.421875 C 11.1875 -12.035156 11.859375 -11.476562 12.328125 -10.75 C 12.796875 -10.03125 13.03125 -9.179688 13.03125 -8.203125 C 13.03125 -7.222656 12.796875 -6.375 12.328125 -5.65625 C 11.859375 -4.9375 11.1875 -4.378906 10.3125 -3.984375 C 9.445312 -3.597656 8.425781 -3.40625 7.25 -3.40625 L 4.984375 -3.40625 L 4.984375 0 L 1.296875 0 L 1.296875 -13.015625 Z M 7.03125 -6.296875 C 7.78125 -6.296875 8.347656 -6.457031 8.734375 -6.78125 C 9.117188 -7.113281 9.3125 -7.585938 9.3125 -8.203125 C 9.3125 -8.804688 9.117188 -9.273438 8.734375 -9.609375 C 8.347656 -9.941406 7.78125 -10.109375 7.03125 -10.109375 L 4.984375 -10.109375 L 4.984375 -6.296875 Z M 7.03125 -6.296875 "/></g></g></g><g fill="rgb(14.509583%, 15.689087%, 18.818665%)" fill-opacity="1"><g transform="translate(15.362844, 36.992486)"><g><path d="M 6.328125 -4.71875 L 4.953125 -3.25 L 4.953125 0 L 1.296875 0 L 1.296875 -13.015625 L 4.953125 -13.015625 L 4.953125 -7.609375 L 9.984375 -13.015625 L 14.03125 -13.015625 L 8.71875 -7.25 L 14.3125 0 L 10.046875 0 Z M 6.328125 -4.71875 "/></g></g></g><g fill="rgb(14.509583%, 15.689087%, 18.818665%)" fill-opacity="1"><g transform="translate(29.348336, 36.992486)"><g><path d="M 6.328125 -4.71875 L 4.953125 -3.25 L 4.953125 0 L 1.296875 0 L 1.296875 -13.015625 L 4.953125 -13.015625 L 4.953125 -7.609375 L 9.984375 -13.015625 L 14.03125 -13.015625 L 8.71875 -7.25 L 14.3125 0 L 10.046875 0 Z M 6.328125 -4.71875 "/></g></g></g></svg>