<svg xmlns="http://www.w3.org/2000/svg" xmlns:xlink="http://www.w3.org/1999/xlink" width="180" zoomAndPan="magnify" viewBox="0 0 180 44.999999" height="44.999999" preserveAspectRatio="xMidYMid meet" version="1.0"><defs><g><g id="id1"/></g></defs><rect x="-18" width="216" fill="rgb(100%, 100%, 100%)" y="-4.5" height="53.999999" fill-opacity="1"/><rect x="-18" width="216" fill="rgb(100%, 100%, 100%)" y="-4.5" height="53.999999" fill-opacity="1"/><rect x="-18" width="216" fill="rgb(100%, 100%, 100%)" y="-4.5" height="53.999999" fill-opacity="1"/><g fill="rgb(14.509583%, 15.689087%, 18.818665%)" fill-opacity="1"><g transform="translate(30.689286, 16.2522)"><g><path d="M 3.640625 0.15625 C 2.984375 0.15625 2.347656 0.078125 1.734375 -0.078125 C 1.117188 -0.242188 0.617188 -0.457031 0.234375 -0.71875 L 0.984375 -2.40625 C 1.347656 -2.164062 1.769531 -1.972656 2.25 -1.828125 C 2.726562 -1.679688 3.195312 -1.609375 3.65625 -1.609375 C 4.53125 -1.609375 4.96875 -1.828125 4.96875 -2.265625 C 4.96875 -2.503906 4.84375 -2.675781 4.59375 -2.78125 C 4.34375 -2.894531 3.941406 -3.015625 3.390625 -3.140625 C 2.785156 -3.265625 2.273438 -3.398438 1.859375 -3.546875 C 1.453125 -3.703125 1.101562 -3.945312 0.8125 -4.28125 C 0.519531 -4.613281 0.375 -5.054688 0.375 -5.609375 C 0.375 -6.109375 0.507812 -6.554688 0.78125 -6.953125 C 1.050781 -7.347656 1.453125 -7.660156 1.984375 -7.890625 C 2.523438 -8.117188 3.179688 -8.234375 3.953125 -8.234375 C 4.484375 -8.234375 5.003906 -8.171875 5.515625 -8.046875 C 6.035156 -7.929688 6.492188 -7.757812 6.890625 -7.53125 L 6.1875 -5.828125 C 5.414062 -6.242188 4.664062 -6.453125 3.9375 -6.453125 C 3.488281 -6.453125 3.160156 -6.382812 2.953125 -6.25 C 2.742188 -6.113281 2.640625 -5.941406 2.640625 -5.734375 C 2.640625 -5.515625 2.757812 -5.347656 3 -5.234375 C 3.25 -5.128906 3.648438 -5.019531 4.203125 -4.90625 C 4.816406 -4.78125 5.320312 -4.640625 5.71875 -4.484375 C 6.125 -4.335938 6.472656 -4.097656 6.765625 -3.765625 C 7.066406 -3.441406 7.21875 -3 7.21875 -2.4375 C 7.21875 -1.957031 7.082031 -1.519531 6.8125 -1.125 C 6.539062 -0.738281 6.132812 -0.425781 5.59375 -0.1875 C 5.0625 0.0390625 4.410156 0.15625 3.640625 0.15625 Z M 3.640625 0.15625 "/></g></g></g><g fill="rgb(14.509583%, 15.689087%, 18.818665%)" fill-opacity="1"><g transform="translate(38.152092, 16.2522)"><g><path d="M 0.8125 -8.078125 L 3.09375 -8.078125 L 3.09375 0 L 0.8125 0 Z M 0.8125 -8.078125 "/></g></g></g><g fill="rgb(14.509583%, 15.689087%, 18.818665%)" fill-opacity="1"><g transform="translate(42.062275, 16.2522)"><g><path d="M 3.640625 0.15625 C 2.984375 0.15625 2.347656 0.078125 1.734375 -0.078125 C 1.117188 -0.242188 0.617188 -0.457031 0.234375 -0.71875 L 0.984375 -2.40625 C 1.347656 -2.164062 1.769531 -1.972656 2.25 -1.828125 C 2.726562 -1.679688 3.195312 -1.609375 3.65625 -1.609375 C 4.53125 -1.609375 4.96875 -1.828125 4.96875 -2.265625 C 4.96875 -2.503906 4.84375 -2.675781 4.59375 -2.78125 C 4.34375 -2.894531 3.941406 -3.015625 3.390625 -3.140625 C 2.785156 -3.265625 2.273438 -3.398438 1.859375 -3.546875 C 1.453125 -3.703125 1.101562 -3.945312 0.8125 -4.28125 C 0.519531 -4.613281 0.375 -5.054688 0.375 -5.609375 C 0.375 -6.109375 0.507812 -6.554688 0.78125 -6.953125 C 1.050781 -7.347656 1.453125 -7.660156 1.984375 -7.890625 C 2.523438 -8.117188 3.179688 -8.234375 3.953125 -8.234375 C 4.484375 -8.234375 5.003906 -8.171875 5.515625 -8.046875 C 6.035156 -7.929688 6.492188 -7.757812 6.890625 -7.53125 L 6.1875 -5.828125 C 5.414062 -6.242188 4.664062 -6.453125 3.9375 -6.453125 C 3.488281 -6.453125 3.160156 -6.382812 2.953125 -6.25 C 2.742188 -6.113281 2.640625 -5.941406 2.640625 -5.734375 C 2.640625 -5.515625 2.757812 -5.347656 3 -5.234375 C 3.25 -5.128906 3.648438 -5.019531 4.203125 -4.90625 C 4.816406 -4.78125 5.320312 -4.640625 5.71875 -4.484375 C 6.125 -4.335938 6.472656 -4.097656 6.765625 -3.765625 C 7.066406 -3.441406 7.21875 -3 7.21875 -2.4375 C 7.21875 -1.957031 7.082031 -1.519531 6.8125 -1.125 C 6.539062 -0.738281 6.132812 -0.425781 5.59375 -0.1875 C 5.0625 0.0390625 4.410156 0.15625 3.640625 0.15625 Z M 3.640625 0.15625 "/></g></g></g><g fill="rgb(14.509583%, 15.689087%, 18.818665%)" fill-opacity="1"><g transform="translate(49.525081, 16.2522)"><g><path d="M 2.53125 -6.265625 L 0.046875 -6.265625 L 0.046875 -8.078125 L 7.28125 -8.078125 L 7.28125 -6.265625 L 4.8125 -6.265625 L 4.8125 0 L 2.53125 0 Z M 2.53125 -6.265625 "/></g></g></g><g fill="rgb(14.509583%, 15.689087%, 18.818665%)" fill-opacity="1"><g transform="translate(56.849477, 16.2522)"><g><path d="M 7.28125 -1.765625 L 7.28125 0 L 0.8125 0 L 0.8125 -8.078125 L 7.140625 -8.078125 L 7.140625 -6.3125 L 3.0625 -6.3125 L 3.0625 -4.953125 L 6.65625 -4.953125 L 6.65625 -3.234375 L 3.0625 -3.234375 L 3.0625 -1.765625 Z M 7.28125 -1.765625 "/></g></g></g><g fill="rgb(14.509583%, 15.689087%, 18.818665%)" fill-opacity="1"><g transform="translate(64.600646, 16.2522)"><g><path d="M 8.09375 0 L 8.078125 -4.28125 L 6 -0.796875 L 4.984375 -0.796875 L 2.921875 -4.15625 L 2.921875 0 L 0.8125 0 L 0.8125 -8.078125 L 2.6875 -8.078125 L 5.53125 -3.40625 L 8.296875 -8.078125 L 10.171875 -8.078125 L 10.1875 0 Z M 8.09375 0 "/></g></g></g><g fill="rgb(14.509583%, 15.689087%, 18.818665%)" fill-opacity="1"><g transform="translate(75.604532, 16.2522)"><g/></g></g><g fill="rgb(14.509583%, 15.689087%, 18.818665%)" fill-opacity="1"><g transform="translate(78.961061, 16.2522)"><g><path d="M 0.8125 -8.078125 L 3.09375 -8.078125 L 3.09375 0 L 0.8125 0 Z M 0.8125 -8.078125 "/></g></g></g><g fill="rgb(14.509583%, 15.689087%, 18.818665%)" fill-opacity="1"><g transform="translate(82.871244, 16.2522)"><g><path d="M 8.484375 -8.078125 L 8.484375 0 L 6.609375 0 L 3.046875 -4.296875 L 3.046875 0 L 0.8125 0 L 0.8125 -8.078125 L 2.6875 -8.078125 L 6.25 -3.765625 L 6.25 -8.078125 Z M 8.484375 -8.078125 "/></g></g></g><g fill="rgb(14.509583%, 15.689087%, 18.818665%)" fill-opacity="1"><g transform="translate(92.168038, 16.2522)"><g><path d="M 3.09375 -6.3125 L 3.09375 -4.53125 L 6.65625 -4.53125 L 6.65625 -2.765625 L 3.09375 -2.765625 L 3.09375 0 L 0.8125 0 L 0.8125 -8.078125 L 7.140625 -8.078125 L 7.140625 -6.3125 Z M 3.09375 -6.3125 "/></g></g></g><g fill="rgb(14.509583%, 15.689087%, 18.818665%)" fill-opacity="1"><g transform="translate(99.573175, 16.2522)"><g><path d="M 4.875 0.15625 C 4.019531 0.15625 3.253906 -0.0195312 2.578125 -0.375 C 1.898438 -0.738281 1.363281 -1.238281 0.96875 -1.875 C 0.582031 -2.519531 0.390625 -3.238281 0.390625 -4.03125 C 0.390625 -4.832031 0.582031 -5.550781 0.96875 -6.1875 C 1.363281 -6.832031 1.898438 -7.332031 2.578125 -7.6875 C 3.253906 -8.050781 4.019531 -8.234375 4.875 -8.234375 C 5.726562 -8.234375 6.492188 -8.050781 7.171875 -7.6875 C 7.859375 -7.332031 8.394531 -6.832031 8.78125 -6.1875 C 9.164062 -5.550781 9.359375 -4.832031 9.359375 -4.03125 C 9.359375 -3.238281 9.164062 -2.519531 8.78125 -1.875 C 8.394531 -1.238281 7.859375 -0.738281 7.171875 -0.375 C 6.492188 -0.0195312 5.726562 0.15625 4.875 0.15625 Z M 4.875 -1.734375 C 5.28125 -1.734375 5.648438 -1.828125 5.984375 -2.015625 C 6.316406 -2.210938 6.578125 -2.484375 6.765625 -2.828125 C 6.960938 -3.179688 7.0625 -3.582031 7.0625 -4.03125 C 7.0625 -4.488281 6.960938 -4.890625 6.765625 -5.234375 C 6.578125 -5.585938 6.316406 -5.859375 5.984375 -6.046875 C 5.648438 -6.242188 5.28125 -6.34375 4.875 -6.34375 C 4.46875 -6.34375 4.097656 -6.242188 3.765625 -6.046875 C 3.441406 -5.859375 3.179688 -5.585938 2.984375 -5.234375 C 2.796875 -4.890625 2.703125 -4.488281 2.703125 -4.03125 C 2.703125 -3.582031 2.796875 -3.179688 2.984375 -2.828125 C 3.179688 -2.484375 3.441406 -2.210938 3.765625 -2.015625 C 4.097656 -1.828125 4.46875 -1.734375 4.875 -1.734375 Z M 4.875 -1.734375 "/></g></g></g><g fill="rgb(14.509583%, 15.689087%, 18.818665%)" fill-opacity="1"><g transform="translate(109.331341, 16.2522)"><g><path d="M 4.328125 -2.140625 L 3.09375 -2.140625 L 3.09375 0 L 0.8125 0 L 0.8125 -8.078125 L 4.5 -8.078125 C 5.226562 -8.078125 5.859375 -7.953125 6.390625 -7.703125 C 6.929688 -7.460938 7.347656 -7.117188 7.640625 -6.671875 C 7.929688 -6.222656 8.078125 -5.691406 8.078125 -5.078125 C 8.078125 -4.492188 7.941406 -3.984375 7.671875 -3.546875 C 7.398438 -3.117188 7.007812 -2.78125 6.5 -2.53125 L 8.25 0 L 5.796875 0 Z M 5.78125 -5.078125 C 5.78125 -5.460938 5.660156 -5.753906 5.421875 -5.953125 C 5.179688 -6.160156 4.828125 -6.265625 4.359375 -6.265625 L 3.09375 -6.265625 L 3.09375 -3.90625 L 4.359375 -3.90625 C 4.828125 -3.90625 5.179688 -4.003906 5.421875 -4.203125 C 5.660156 -4.410156 5.78125 -4.703125 5.78125 -5.078125 Z M 5.78125 -5.078125 "/></g></g></g><g fill="rgb(14.509583%, 15.689087%, 18.818665%)" fill-opacity="1"><g transform="translate(117.866858, 16.2522)"><g><path d="M 8.09375 0 L 8.078125 -4.28125 L 6 -0.796875 L 4.984375 -0.796875 L 2.921875 -4.15625 L 2.921875 0 L 0.8125 0 L 0.8125 -8.078125 L 2.6875 -8.078125 L 5.53125 -3.40625 L 8.296875 -8.078125 L 10.171875 -8.078125 L 10.1875 0 Z M 8.09375 0 "/></g></g></g><g fill="rgb(14.509583%, 15.689087%, 18.818665%)" fill-opacity="1"><g transform="translate(128.870744, 16.2522)"><g><path d="M 6.21875 -1.5625 L 2.796875 -1.5625 L 2.171875 0 L -0.15625 0 L 3.40625 -8.078125 L 5.65625 -8.078125 L 9.21875 0 L 6.84375 0 Z M 5.546875 -3.25 L 4.515625 -5.828125 L 3.46875 -3.25 Z M 5.546875 -3.25 "/></g></g></g><g fill="rgb(14.509583%, 15.689087%, 18.818665%)" fill-opacity="1"><g transform="translate(137.936846, 16.2522)"><g><path d="M 3.640625 0.15625 C 2.984375 0.15625 2.347656 0.078125 1.734375 -0.078125 C 1.117188 -0.242188 0.617188 -0.457031 0.234375 -0.71875 L 0.984375 -2.40625 C 1.347656 -2.164062 1.769531 -1.972656 2.25 -1.828125 C 2.726562 -1.679688 3.195312 -1.609375 3.65625 -1.609375 C 4.53125 -1.609375 4.96875 -1.828125 4.96875 -2.265625 C 4.96875 -2.503906 4.84375 -2.675781 4.59375 -2.78125 C 4.34375 -2.894531 3.941406 -3.015625 3.390625 -3.140625 C 2.785156 -3.265625 2.273438 -3.398438 1.859375 -3.546875 C 1.453125 -3.703125 1.101562 -3.945312 0.8125 -4.28125 C 0.519531 -4.613281 0.375 -5.054688 0.375 -5.609375 C 0.375 -6.109375 0.507812 -6.554688 0.78125 -6.953125 C 1.050781 -7.347656 1.453125 -7.660156 1.984375 -7.890625 C 2.523438 -8.117188 3.179688 -8.234375 3.953125 -8.234375 C 4.484375 -8.234375 5.003906 -8.171875 5.515625 -8.046875 C 6.035156 -7.929688 6.492188 -7.757812 6.890625 -7.53125 L 6.1875 -5.828125 C 5.414062 -6.242188 4.664062 -6.453125 3.9375 -6.453125 C 3.488281 -6.453125 3.160156 -6.382812 2.953125 -6.25 C 2.742188 -6.113281 2.640625 -5.941406 2.640625 -5.734375 C 2.640625 -5.515625 2.757812 -5.347656 3 -5.234375 C 3.25 -5.128906 3.648438 -5.019531 4.203125 -4.90625 C 4.816406 -4.78125 5.320312 -4.640625 5.71875 -4.484375 C 6.125 -4.335938 6.472656 -4.097656 6.765625 -3.765625 C 7.066406 -3.441406 7.21875 -3 7.21875 -2.4375 C 7.21875 -1.957031 7.082031 -1.519531 6.8125 -1.125 C 6.539062 -0.738281 6.132812 -0.425781 5.59375 -0.1875 C 5.0625 0.0390625 4.410156 0.15625 3.640625 0.15625 Z M 3.640625 0.15625 "/></g></g></g><g fill="rgb(14.509583%, 15.689087%, 18.818665%)" fill-opacity="1"><g transform="translate(145.399652, 16.2522)"><g><path d="M 0.8125 -8.078125 L 3.09375 -8.078125 L 3.09375 0 L 0.8125 0 Z M 0.8125 -8.078125 "/></g></g></g><g fill="rgb(14.509583%, 15.689087%, 18.818665%)" fill-opacity="1"><g transform="translate(41.607914, 26.825397)"><g><path d="M 4.5 -8.078125 C 5.226562 -8.078125 5.859375 -7.953125 6.390625 -7.703125 C 6.929688 -7.460938 7.347656 -7.117188 7.640625 -6.671875 C 7.929688 -6.222656 8.078125 -5.691406 8.078125 -5.078125 C 8.078125 -4.472656 7.929688 -3.945312 7.640625 -3.5 C 7.347656 -3.0625 6.929688 -2.71875 6.390625 -2.46875 C 5.859375 -2.226562 5.226562 -2.109375 4.5 -2.109375 L 3.09375 -2.109375 L 3.09375 0 L 0.8125 0 L 0.8125 -8.078125 Z M 4.359375 -3.90625 C 4.828125 -3.90625 5.179688 -4.003906 5.421875 -4.203125 C 5.660156 -4.410156 5.78125 -4.703125 5.78125 -5.078125 C 5.78125 -5.460938 5.660156 -5.753906 5.421875 -5.953125 C 5.179688 -6.160156 4.828125 -6.265625 4.359375 -6.265625 L 3.09375 -6.265625 L 3.09375 -3.90625 Z M 4.359375 -3.90625 "/></g></g></g><g fill="rgb(14.509583%, 15.689087%, 18.818665%)" fill-opacity="1"><g transform="translate(50.108818, 26.825397)"><g><path d="M 7.28125 -1.765625 L 7.28125 0 L 0.8125 0 L 0.8125 -8.078125 L 7.140625 -8.078125 L 7.140625 -6.3125 L 3.0625 -6.3125 L 3.0625 -4.953125 L 6.65625 -4.953125 L 6.65625 -3.234375 L 3.0625 -3.234375 L 3.0625 -1.765625 Z M 7.28125 -1.765625 "/></g></g></g><g fill="rgb(14.509583%, 15.689087%, 18.818665%)" fill-opacity="1"><g transform="translate(57.859986, 26.825397)"><g><path d="M 8.484375 -8.078125 L 8.484375 0 L 6.609375 0 L 3.046875 -4.296875 L 3.046875 0 L 0.8125 0 L 0.8125 -8.078125 L 2.6875 -8.078125 L 6.25 -3.765625 L 6.25 -8.078125 Z M 8.484375 -8.078125 "/></g></g></g><g fill="rgb(14.509583%, 15.689087%, 18.818665%)" fill-opacity="1"><g transform="translate(67.156781, 26.825397)"><g><path d="M 6.21875 -4.203125 L 8.234375 -4.203125 L 8.234375 -0.859375 C 7.773438 -0.535156 7.242188 -0.285156 6.640625 -0.109375 C 6.046875 0.0664062 5.445312 0.15625 4.84375 0.15625 C 4 0.15625 3.238281 -0.0195312 2.5625 -0.375 C 1.882812 -0.726562 1.351562 -1.222656 0.96875 -1.859375 C 0.582031 -2.503906 0.390625 -3.226562 0.390625 -4.03125 C 0.390625 -4.84375 0.582031 -5.566406 0.96875 -6.203125 C 1.351562 -6.835938 1.882812 -7.332031 2.5625 -7.6875 C 3.25 -8.050781 4.023438 -8.234375 4.890625 -8.234375 C 5.640625 -8.234375 6.3125 -8.101562 6.90625 -7.84375 C 7.507812 -7.59375 8.015625 -7.226562 8.421875 -6.75 L 6.96875 -5.4375 C 6.414062 -6.039062 5.757812 -6.34375 5 -6.34375 C 4.3125 -6.34375 3.753906 -6.128906 3.328125 -5.703125 C 2.910156 -5.285156 2.703125 -4.726562 2.703125 -4.03125 C 2.703125 -3.582031 2.796875 -3.179688 2.984375 -2.828125 C 3.179688 -2.484375 3.453125 -2.210938 3.796875 -2.015625 C 4.140625 -1.828125 4.535156 -1.734375 4.984375 -1.734375 C 5.421875 -1.734375 5.832031 -1.820312 6.21875 -2 Z M 6.21875 -4.203125 "/></g></g></g><g fill="rgb(14.509583%, 15.689087%, 18.818665%)" fill-opacity="1"><g transform="translate(76.038331, 26.825397)"><g><path d="M 7.28125 -1.765625 L 7.28125 0 L 0.8125 0 L 0.8125 -8.078125 L 7.140625 -8.078125 L 7.140625 -6.3125 L 3.0625 -6.3125 L 3.0625 -4.953125 L 6.65625 -4.953125 L 6.65625 -3.234375 L 3.0625 -3.234375 L 3.0625 -1.765625 Z M 7.28125 -1.765625 "/></g></g></g><g fill="rgb(14.509583%, 15.689087%, 18.818665%)" fill-opacity="1"><g transform="translate(83.7895, 26.825397)"><g><path d="M 0.8125 -8.078125 L 3.09375 -8.078125 L 3.09375 -1.8125 L 6.9375 -1.8125 L 6.9375 0 L 0.8125 0 Z M 0.8125 -8.078125 "/></g></g></g><g fill="rgb(14.509583%, 15.689087%, 18.818665%)" fill-opacity="1"><g transform="translate(90.825533, 26.825397)"><g><path d="M 4.875 0.15625 C 4.019531 0.15625 3.253906 -0.0195312 2.578125 -0.375 C 1.898438 -0.738281 1.363281 -1.238281 0.96875 -1.875 C 0.582031 -2.519531 0.390625 -3.238281 0.390625 -4.03125 C 0.390625 -4.832031 0.582031 -5.550781 0.96875 -6.1875 C 1.363281 -6.832031 1.898438 -7.332031 2.578125 -7.6875 C 3.253906 -8.050781 4.019531 -8.234375 4.875 -8.234375 C 5.726562 -8.234375 6.492188 -8.050781 7.171875 -7.6875 C 7.859375 -7.332031 8.394531 -6.832031 8.78125 -6.1875 C 9.164062 -5.550781 9.359375 -4.832031 9.359375 -4.03125 C 9.359375 -3.238281 9.164062 -2.519531 8.78125 -1.875 C 8.394531 -1.238281 7.859375 -0.738281 7.171875 -0.375 C 6.492188 -0.0195312 5.726562 0.15625 4.875 0.15625 Z M 4.875 -1.734375 C 5.28125 -1.734375 5.648438 -1.828125 5.984375 -2.015625 C 6.316406 -2.210938 6.578125 -2.484375 6.765625 -2.828125 C 6.960938 -3.179688 7.0625 -3.582031 7.0625 -4.03125 C 7.0625 -4.488281 6.960938 -4.890625 6.765625 -5.234375 C 6.578125 -5.585938 6.316406 -5.859375 5.984375 -6.046875 C 5.648438 -6.242188 5.28125 -6.34375 4.875 -6.34375 C 4.46875 -6.34375 4.097656 -6.242188 3.765625 -6.046875 C 3.441406 -5.859375 3.179688 -5.585938 2.984375 -5.234375 C 2.796875 -4.890625 2.703125 -4.488281 2.703125 -4.03125 C 2.703125 -3.582031 2.796875 -3.179688 2.984375 -2.828125 C 3.179688 -2.484375 3.441406 -2.210938 3.765625 -2.015625 C 4.097656 -1.828125 4.46875 -1.734375 4.875 -1.734375 Z M 4.875 -1.734375 "/></g></g></g><g fill="rgb(14.509583%, 15.689087%, 18.818665%)" fill-opacity="1"><g transform="translate(100.583699, 26.825397)"><g><path d="M 0.8125 -8.078125 L 3.09375 -8.078125 L 3.09375 -1.8125 L 6.9375 -1.8125 L 6.9375 0 L 0.8125 0 Z M 0.8125 -8.078125 "/></g></g></g><g fill="rgb(14.509583%, 15.689087%, 18.818665%)" fill-opacity="1"><g transform="translate(107.619732, 26.825397)"><g><path d="M 6.21875 -1.5625 L 2.796875 -1.5625 L 2.171875 0 L -0.15625 0 L 3.40625 -8.078125 L 5.65625 -8.078125 L 9.21875 0 L 6.84375 0 Z M 5.546875 -3.25 L 4.515625 -5.828125 L 3.46875 -3.25 Z M 5.546875 -3.25 "/></g></g></g><g fill="rgb(14.509583%, 15.689087%, 18.818665%)" fill-opacity="1"><g transform="translate(116.685833, 26.825397)"><g><path d="M 6.21875 -1.5625 L 2.796875 -1.5625 L 2.171875 0 L -0.15625 0 L 3.40625 -8.078125 L 5.65625 -8.078125 L 9.21875 0 L 6.84375 0 Z M 5.546875 -3.25 L 4.515625 -5.828125 L 3.46875 -3.25 Z M 5.546875 -3.25 "/></g></g></g><g fill="rgb(14.509583%, 15.689087%, 18.818665%)" fill-opacity="1"><g transform="translate(125.751935, 26.825397)"><g><path d="M 8.484375 -8.078125 L 8.484375 0 L 6.609375 0 L 3.046875 -4.296875 L 3.046875 0 L 0.8125 0 L 0.8125 -8.078125 L 2.6875 -8.078125 L 6.25 -3.765625 L 6.25 -8.078125 Z M 8.484375 -8.078125 "/></g></g></g><g fill="rgb(14.509583%, 15.689087%, 18.818665%)" fill-opacity="1"><g transform="translate(135.039533, 26.825397)"><g/></g></g><g fill="rgb(14.509583%, 15.689087%, 18.818665%)" fill-opacity="1"><g transform="translate(14.994696, 37.398595)"><g><path d="M 3.921875 -2.921875 L 3.0625 -2.015625 L 3.0625 0 L 0.8125 0 L 0.8125 -8.078125 L 3.0625 -8.078125 L 3.0625 -4.71875 L 6.1875 -8.078125 L 8.703125 -8.078125 L 5.40625 -4.5 L 8.875 0 L 6.234375 0 Z M 3.921875 -2.921875 "/></g></g></g><g fill="rgb(14.509583%, 15.689087%, 18.818665%)" fill-opacity="1"><g transform="translate(23.668623, 37.398595)"><g><path d="M 7.28125 -1.765625 L 7.28125 0 L 0.8125 0 L 0.8125 -8.078125 L 7.140625 -8.078125 L 7.140625 -6.3125 L 3.0625 -6.3125 L 3.0625 -4.953125 L 6.65625 -4.953125 L 6.65625 -3.234375 L 3.0625 -3.234375 L 3.0625 -1.765625 Z M 7.28125 -1.765625 "/></g></g></g><g fill="rgb(14.509583%, 15.689087%, 18.818665%)" fill-opacity="1"><g transform="translate(31.419792, 37.398595)"><g><path d="M 4.53125 0.15625 C 3.332031 0.15625 2.398438 -0.164062 1.734375 -0.8125 C 1.066406 -1.46875 0.734375 -2.394531 0.734375 -3.59375 L 0.734375 -8.078125 L 3.015625 -8.078125 L 3.015625 -3.671875 C 3.015625 -2.378906 3.53125 -1.734375 4.5625 -1.734375 C 5.570312 -1.734375 6.078125 -2.378906 6.078125 -3.671875 L 6.078125 -8.078125 L 8.328125 -8.078125 L 8.328125 -3.59375 C 8.328125 -2.394531 7.992188 -1.46875 7.328125 -0.8125 C 6.660156 -0.164062 5.726562 0.15625 4.53125 0.15625 Z M 4.53125 0.15625 "/></g></g></g><g fill="rgb(14.509583%, 15.689087%, 18.818665%)" fill-opacity="1"><g transform="translate(40.485893, 37.398595)"><g><path d="M 6.21875 -1.5625 L 2.796875 -1.5625 L 2.171875 0 L -0.15625 0 L 3.40625 -8.078125 L 5.65625 -8.078125 L 9.21875 0 L 6.84375 0 Z M 5.546875 -3.25 L 4.515625 -5.828125 L 3.46875 -3.25 Z M 5.546875 -3.25 "/></g></g></g><g fill="rgb(14.509583%, 15.689087%, 18.818665%)" fill-opacity="1"><g transform="translate(49.551995, 37.398595)"><g><path d="M 8.484375 -8.078125 L 8.484375 0 L 6.609375 0 L 3.046875 -4.296875 L 3.046875 0 L 0.8125 0 L 0.8125 -8.078125 L 2.6875 -8.078125 L 6.25 -3.765625 L 6.25 -8.078125 Z M 8.484375 -8.078125 "/></g></g></g><g fill="rgb(14.509583%, 15.689087%, 18.818665%)" fill-opacity="1"><g transform="translate(58.848789, 37.398595)"><g><path d="M 6.21875 -4.203125 L 8.234375 -4.203125 L 8.234375 -0.859375 C 7.773438 -0.535156 7.242188 -0.285156 6.640625 -0.109375 C 6.046875 0.0664062 5.445312 0.15625 4.84375 0.15625 C 4 0.15625 3.238281 -0.0195312 2.5625 -0.375 C 1.882812 -0.726562 1.351562 -1.222656 0.96875 -1.859375 C 0.582031 -2.503906 0.390625 -3.226562 0.390625 -4.03125 C 0.390625 -4.84375 0.582031 -5.566406 0.96875 -6.203125 C 1.351562 -6.835938 1.882812 -7.332031 2.5625 -7.6875 C 3.25 -8.050781 4.023438 -8.234375 4.890625 -8.234375 C 5.640625 -8.234375 6.3125 -8.101562 6.90625 -7.84375 C 7.507812 -7.59375 8.015625 -7.226562 8.421875 -6.75 L 6.96875 -5.4375 C 6.414062 -6.039062 5.757812 -6.34375 5 -6.34375 C 4.3125 -6.34375 3.753906 -6.128906 3.328125 -5.703125 C 2.910156 -5.285156 2.703125 -4.726562 2.703125 -4.03125 C 2.703125 -3.582031 2.796875 -3.179688 2.984375 -2.828125 C 3.179688 -2.484375 3.453125 -2.210938 3.796875 -2.015625 C 4.140625 -1.828125 4.535156 -1.734375 4.984375 -1.734375 C 5.421875 -1.734375 5.832031 -1.820312 6.21875 -2 Z M 6.21875 -4.203125 "/></g></g></g><g fill="rgb(14.509583%, 15.689087%, 18.818665%)" fill-opacity="1"><g transform="translate(67.730339, 37.398595)"><g><path d="M 6.21875 -1.5625 L 2.796875 -1.5625 L 2.171875 0 L -0.15625 0 L 3.40625 -8.078125 L 5.65625 -8.078125 L 9.21875 0 L 6.84375 0 Z M 5.546875 -3.25 L 4.515625 -5.828125 L 3.46875 -3.25 Z M 5.546875 -3.25 "/></g></g></g><g fill="rgb(14.509583%, 15.689087%, 18.818665%)" fill-opacity="1"><g transform="translate(76.79644, 37.398595)"><g><path d="M 8.484375 -8.078125 L 8.484375 0 L 6.609375 0 L 3.046875 -4.296875 L 3.046875 0 L 0.8125 0 L 0.8125 -8.078125 L 2.6875 -8.078125 L 6.25 -3.765625 L 6.25 -8.078125 Z M 8.484375 -8.078125 "/></g></g></g><g fill="rgb(14.509583%, 15.689087%, 18.818665%)" fill-opacity="1"><g transform="translate(86.093234, 37.398595)"><g/></g></g><g fill="rgb(14.509583%, 15.689087%, 18.818665%)" fill-opacity="1"><g transform="translate(89.449763, 37.398595)"><g><path d="M 3.921875 -2.921875 L 3.0625 -2.015625 L 3.0625 0 L 0.8125 0 L 0.8125 -8.078125 L 3.0625 -8.078125 L 3.0625 -4.71875 L 6.1875 -8.078125 L 8.703125 -8.078125 L 5.40625 -4.5 L 8.875 0 L 6.234375 0 Z M 3.921875 -2.921875 "/></g></g></g><g fill="rgb(14.509583%, 15.689087%, 18.818665%)" fill-opacity="1"><g transform="translate(98.12369, 37.398595)"><g><path d="M 4.875 0.15625 C 4.019531 0.15625 3.253906 -0.0195312 2.578125 -0.375 C 1.898438 -0.738281 1.363281 -1.238281 0.96875 -1.875 C 0.582031 -2.519531 0.390625 -3.238281 0.390625 -4.03125 C 0.390625 -4.832031 0.582031 -5.550781 0.96875 -6.1875 C 1.363281 -6.832031 1.898438 -7.332031 2.578125 -7.6875 C 3.253906 -8.050781 4.019531 -8.234375 4.875 -8.234375 C 5.726562 -8.234375 6.492188 -8.050781 7.171875 -7.6875 C 7.859375 -7.332031 8.394531 -6.832031 8.78125 -6.1875 C 9.164062 -5.550781 9.359375 -4.832031 9.359375 -4.03125 C 9.359375 -3.238281 9.164062 -2.519531 8.78125 -1.875 C 8.394531 -1.238281 7.859375 -0.738281 7.171875 -0.375 C 6.492188 -0.0195312 5.726562 0.15625 4.875 0.15625 Z M 4.875 -1.734375 C 5.28125 -1.734375 5.648438 -1.828125 5.984375 -2.015625 C 6.316406 -2.210938 6.578125 -2.484375 6.765625 -2.828125 C 6.960938 -3.179688 7.0625 -3.582031 7.0625 -4.03125 C 7.0625 -4.488281 6.960938 -4.890625 6.765625 -5.234375 C 6.578125 -5.585938 6.316406 -5.859375 5.984375 -6.046875 C 5.648438 -6.242188 5.28125 -6.34375 4.875 -6.34375 C 4.46875 -6.34375 4.097656 -6.242188 3.765625 -6.046875 C 3.441406 -5.859375 3.179688 -5.585938 2.984375 -5.234375 C 2.796875 -4.890625 2.703125 -4.488281 2.703125 -4.03125 C 2.703125 -3.582031 2.796875 -3.179688 2.984375 -2.828125 C 3.179688 -2.484375 3.441406 -2.210938 3.765625 -2.015625 C 4.097656 -1.828125 4.46875 -1.734375 4.875 -1.734375 Z M 4.875 -1.734375 "/></g></g></g><g fill="rgb(14.509583%, 15.689087%, 18.818665%)" fill-opacity="1"><g transform="translate(107.881856, 37.398595)"><g><path d="M 8.09375 0 L 8.078125 -4.28125 L 6 -0.796875 L 4.984375 -0.796875 L 2.921875 -4.15625 L 2.921875 0 L 0.8125 0 L 0.8125 -8.078125 L 2.6875 -8.078125 L 5.53125 -3.40625 L 8.296875 -8.078125 L 10.171875 -8.078125 L 10.1875 0 Z M 8.09375 0 "/></g></g></g><g fill="rgb(14.509583%, 15.689087%, 18.818665%)" fill-opacity="1"><g transform="translate(118.885742, 37.398595)"><g><path d="M 4.53125 0.15625 C 3.332031 0.15625 2.398438 -0.164062 1.734375 -0.8125 C 1.066406 -1.46875 0.734375 -2.394531 0.734375 -3.59375 L 0.734375 -8.078125 L 3.015625 -8.078125 L 3.015625 -3.671875 C 3.015625 -2.378906 3.53125 -1.734375 4.5625 -1.734375 C 5.570312 -1.734375 6.078125 -2.378906 6.078125 -3.671875 L 6.078125 -8.078125 L 8.328125 -8.078125 L 8.328125 -3.59375 C 8.328125 -2.394531 7.992188 -1.46875 7.328125 -0.8125 C 6.660156 -0.164062 5.726562 0.15625 4.53125 0.15625 Z M 4.53125 0.15625 "/></g></g></g><g fill="rgb(14.509583%, 15.689087%, 18.818665%)" fill-opacity="1"><g transform="translate(127.951844, 37.398595)"><g><path d="M 8.484375 -8.078125 L 8.484375 0 L 6.609375 0 L 3.046875 -4.296875 L 3.046875 0 L 0.8125 0 L 0.8125 -8.078125 L 2.6875 -8.078125 L 6.25 -3.765625 L 6.25 -8.078125 Z M 8.484375 -8.078125 "/></g></g></g><g fill="rgb(14.509583%, 15.689087%, 18.818665%)" fill-opacity="1"><g transform="translate(137.248638, 37.398595)"><g><path d="M 0.8125 -8.078125 L 3.09375 -8.078125 L 3.09375 0 L 0.8125 0 Z M 0.8125 -8.078125 "/></g></g></g><g fill="rgb(14.509583%, 15.689087%, 18.818665%)" fill-opacity="1"><g transform="translate(141.158822, 37.398595)"><g><path d="M 2.53125 -6.265625 L 0.046875 -6.265625 L 0.046875 -8.078125 L 7.28125 -8.078125 L 7.28125 -6.265625 L 4.8125 -6.265625 L 4.8125 0 L 2.53125 0 Z M 2.53125 -6.265625 "/></g></g></g><g fill="rgb(14.509583%, 15.689087%, 18.818665%)" fill-opacity="1"><g transform="translate(148.483218, 37.398595)"><g><path d="M 6.21875 -1.5625 L 2.796875 -1.5625 L 2.171875 0 L -0.15625 0 L 3.40625 -8.078125 L 5.65625 -8.078125 L 9.21875 0 L 6.84375 0 Z M 5.546875 -3.25 L 4.515625 -5.828125 L 3.46875 -3.25 Z M 5.546875 -3.25 "/></g></g></g><g fill="rgb(14.509583%, 15.689087%, 18.818665%)" fill-opacity="1"><g transform="translate(157.549319, 37.398595)"><g><path d="M 3.640625 0.15625 C 2.984375 0.15625 2.347656 0.078125 1.734375 -0.078125 C 1.117188 -0.242188 0.617188 -0.457031 0.234375 -0.71875 L 0.984375 -2.40625 C 1.347656 -2.164062 1.769531 -1.972656 2.25 -1.828125 C 2.726562 -1.679688 3.195312 -1.609375 3.65625 -1.609375 C 4.53125 -1.609375 4.96875 -1.828125 4.96875 -2.265625 C 4.96875 -2.503906 4.84375 -2.675781 4.59375 -2.78125 C 4.34375 -2.894531 3.941406 -3.015625 3.390625 -3.140625 C 2.785156 -3.265625 2.273438 -3.398438 1.859375 -3.546875 C 1.453125 -3.703125 1.101562 -3.945312 0.8125 -4.28125 C 0.519531 -4.613281 0.375 -5.054688 0.375 -5.609375 C 0.375 -6.109375 0.507812 -6.554688 0.78125 -6.953125 C 1.050781 -7.347656 1.453125 -7.660156 1.984375 -7.890625 C 2.523438 -8.117188 3.179688 -8.234375 3.953125 -8.234375 C 4.484375 -8.234375 5.003906 -8.171875 5.515625 -8.046875 C 6.035156 -7.929688 6.492188 -7.757812 6.890625 -7.53125 L 6.1875 -5.828125 C 5.414062 -6.242188 4.664062 -6.453125 3.9375 -6.453125 C 3.488281 -6.453125 3.160156 -6.382812 2.953125 -6.25 C 2.742188 -6.113281 2.640625 -5.941406 2.640625 -5.734375 C 2.640625 -5.515625 2.757812 -5.347656 3 -5.234375 C 3.25 -5.128906 3.648438 -5.019531 4.203125 -4.90625 C 4.816406 -4.78125 5.320312 -4.640625 5.71875 -4.484375 C 6.125 -4.335938 6.472656 -4.097656 6.765625 -3.765625 C 7.066406 -3.441406 7.21875 -3 7.21875 -2.4375 C 7.21875 -1.957031 7.082031 -1.519531 6.8125 -1.125 C 6.539062 -0.738281 6.132812 -0.425781 5.59375 -0.1875 C 5.0625 0.0390625 4.410156 0.15625 3.640625 0.15625 Z M 3.640625 0.15625 "/></g></g></g></svg>